<svg id="visual" viewBox="0 0 3440 1440" width="3440" height="1440" xmlns="http://www.w3.org/2000/svg" xmlns:xlink="http://www.w3.org/1999/xlink" version="1.1"><rect x="0" y="0" width="3440" height="1440" fill="#0a080d"></rect><path d="M0 1028L202 647L405 973L607 999L809 794L1012 759L1214 697L1416 855L1619 839L1821 843L2024 646L2226 1025L2428 971L2631 749L2833 989L3035 758L3238 961L3440 912L3440 1441L3238 1441L3035 1441L2833 1441L2631 1441L2428 1441L2226 1441L2024 1441L1821 1441L1619 1441L1416 1441L1214 1441L1012 1441L809 1441L607 1441L405 1441L202 1441L0 1441Z" fill="#140b2a"></path><path d="M0 721L202 794L405 1089L607 725L809 1109L1012 1121L1214 884L1416 1003L1619 865L1821 967L2024 944L2226 773L2428 846L2631 815L2833 994L3035 845L3238 1034L3440 855L3440 1441L3238 1441L3035 1441L2833 1441L2631 1441L2428 1441L2226 1441L2024 1441L1821 1441L1619 1441L1416 1441L1214 1441L1012 1441L809 1441L607 1441L405 1441L202 1441L0 1441Z" fill="#170f32"></path><path d="M0 1159L202 1183L405 781L607 1037L809 855L1012 996L1214 842L1416 1072L1619 907L1821 770L2024 915L2226 1079L2428 899L2631 996L2833 936L3035 949L3238 1020L3440 985L3440 1441L3238 1441L3035 1441L2833 1441L2631 1441L2428 1441L2226 1441L2024 1441L1821 1441L1619 1441L1416 1441L1214 1441L1012 1441L809 1441L607 1441L405 1441L202 1441L0 1441Z" fill="#1a123b"></path><path d="M0 843L202 942L405 1051L607 1144L809 1132L1012 993L1214 815L1416 961L1619 924L1821 873L2024 962L2226 932L2428 1201L2631 1036L2833 885L3035 1110L3238 1000L3440 985L3440 1441L3238 1441L3035 1441L2833 1441L2631 1441L2428 1441L2226 1441L2024 1441L1821 1441L1619 1441L1416 1441L1214 1441L1012 1441L809 1441L607 1441L405 1441L202 1441L0 1441Z" fill="#1e1443"></path><path d="M0 933L202 1104L405 1209L607 929L809 1238L1012 1087L1214 970L1416 896L1619 921L1821 1090L2024 1237L2226 1184L2428 1025L2631 1209L2833 1186L3035 1176L3238 1164L3440 986L3440 1441L3238 1441L3035 1441L2833 1441L2631 1441L2428 1441L2226 1441L2024 1441L1821 1441L1619 1441L1416 1441L1214 1441L1012 1441L809 1441L607 1441L405 1441L202 1441L0 1441Z" fill="#23174c"></path><path d="M0 1020L202 1099L405 1005L607 1040L809 1182L1012 1235L1214 1112L1416 1123L1619 1072L1821 1198L2024 1219L2226 982L2428 1275L2631 1236L2833 966L3035 1029L3238 1130L3440 1212L3440 1441L3238 1441L3035 1441L2833 1441L2631 1441L2428 1441L2226 1441L2024 1441L1821 1441L1619 1441L1416 1441L1214 1441L1012 1441L809 1441L607 1441L405 1441L202 1441L0 1441Z" fill="#271955"></path><path d="M0 1164L202 1185L405 1092L607 1093L809 1188L1012 1227L1214 1178L1416 1291L1619 1103L1821 1114L2024 1137L2226 1060L2428 1057L2631 1124L2833 1082L3035 1092L3238 1260L3440 1239L3440 1441L3238 1441L3035 1441L2833 1441L2631 1441L2428 1441L2226 1441L2024 1441L1821 1441L1619 1441L1416 1441L1214 1441L1012 1441L809 1441L607 1441L405 1441L202 1441L0 1441Z" fill="#2b1b5e"></path><path d="M0 1093L202 1330L405 1114L607 1300L809 1250L1012 1252L1214 1191L1416 1240L1619 1262L1821 1321L2024 1155L2226 1142L2428 1280L2631 1191L2833 1094L3035 1257L3238 1265L3440 1317L3440 1441L3238 1441L3035 1441L2833 1441L2631 1441L2428 1441L2226 1441L2024 1441L1821 1441L1619 1441L1416 1441L1214 1441L1012 1441L809 1441L607 1441L405 1441L202 1441L0 1441Z" fill="#301e67"></path><path d="M0 1238L202 1268L405 1172L607 1271L809 1307L1012 1359L1214 1307L1416 1283L1619 1185L1821 1260L2024 1180L2226 1178L2428 1317L2631 1166L2833 1295L3035 1355L3238 1196L3440 1276L3440 1441L3238 1441L3035 1441L2833 1441L2631 1441L2428 1441L2226 1441L2024 1441L1821 1441L1619 1441L1416 1441L1214 1441L1012 1441L809 1441L607 1441L405 1441L202 1441L0 1441Z" fill="#352071"></path><path d="M0 1373L202 1364L405 1351L607 1239L809 1341L1012 1357L1214 1362L1416 1273L1619 1277L1821 1354L2024 1382L2226 1243L2428 1386L2631 1374L2833 1335L3035 1345L3238 1389L3440 1372L3440 1441L3238 1441L3035 1441L2833 1441L2631 1441L2428 1441L2226 1441L2024 1441L1821 1441L1619 1441L1416 1441L1214 1441L1012 1441L809 1441L607 1441L405 1441L202 1441L0 1441Z" fill="#3a227a"></path><path d="M0 1419L202 1374L405 1386L607 1352L809 1408L1012 1411L1214 1349L1416 1352L1619 1412L1821 1346L2024 1393L2226 1330L2428 1345L2631 1352L2833 1386L3035 1367L3238 1302L3440 1414L3440 1441L3238 1441L3035 1441L2833 1441L2631 1441L2428 1441L2226 1441L2024 1441L1821 1441L1619 1441L1416 1441L1214 1441L1012 1441L809 1441L607 1441L405 1441L202 1441L0 1441Z" fill="#3f2484"></path></svg>