<svg id="visual" viewBox="0 0 1920 1080" width="1920" height="1080" xmlns="http://www.w3.org/2000/svg" xmlns:xlink="http://www.w3.org/1999/xlink" version="1.1"><rect x="0" y="0" width="1920" height="1080" fill="#0a080d"></rect><path d="M0 771L113 485L226 729L339 749L452 596L565 569L678 522L791 641L904 629L1016 632L1129 484L1242 768L1355 728L1468 562L1581 742L1694 568L1807 720L1920 684L1920 1081L1807 1081L1694 1081L1581 1081L1468 1081L1355 1081L1242 1081L1129 1081L1016 1081L904 1081L791 1081L678 1081L565 1081L452 1081L339 1081L226 1081L113 1081L0 1081Z" fill="#140b2a"></path><path d="M0 541L113 595L226 817L339 543L452 831L565 840L678 663L791 752L904 648L1016 725L1129 708L1242 579L1355 634L1468 611L1581 745L1694 634L1807 776L1920 641L1920 1081L1807 1081L1694 1081L1581 1081L1468 1081L1355 1081L1242 1081L1129 1081L1016 1081L904 1081L791 1081L678 1081L565 1081L452 1081L339 1081L226 1081L113 1081L0 1081Z" fill="#170f32"></path><path d="M0 869L113 887L226 586L339 778L452 641L565 747L678 631L791 804L904 680L1016 577L1129 686L1242 809L1355 674L1468 746L1581 701L1694 712L1807 764L1920 739L1920 1081L1807 1081L1694 1081L1581 1081L1468 1081L1355 1081L1242 1081L1129 1081L1016 1081L904 1081L791 1081L678 1081L565 1081L452 1081L339 1081L226 1081L113 1081L0 1081Z" fill="#1a123b"></path><path d="M0 632L113 706L226 788L339 858L452 849L565 744L678 611L791 720L904 693L1016 654L1129 721L1242 699L1355 901L1468 777L1581 664L1694 833L1807 750L1920 738L1920 1081L1807 1081L1694 1081L1581 1081L1468 1081L1355 1081L1242 1081L1129 1081L1016 1081L904 1081L791 1081L678 1081L565 1081L452 1081L339 1081L226 1081L113 1081L0 1081Z" fill="#1e1443"></path><path d="M0 699L113 828L226 907L339 696L452 928L565 815L678 727L791 672L904 690L1016 817L1129 928L1242 888L1355 769L1468 906L1581 889L1694 882L1807 873L1920 739L1920 1081L1807 1081L1694 1081L1581 1081L1468 1081L1355 1081L1242 1081L1129 1081L1016 1081L904 1081L791 1081L678 1081L565 1081L452 1081L339 1081L226 1081L113 1081L0 1081Z" fill="#23174c"></path><path d="M0 765L113 824L226 753L339 780L452 886L565 926L678 834L791 842L904 803L1016 899L1129 914L1242 736L1355 956L1468 927L1581 724L1694 771L1807 847L1920 909L1920 1081L1807 1081L1694 1081L1581 1081L1468 1081L1355 1081L1242 1081L1129 1081L1016 1081L904 1081L791 1081L678 1081L565 1081L452 1081L339 1081L226 1081L113 1081L0 1081Z" fill="#271955"></path><path d="M0 873L113 888L226 818L339 819L452 891L565 920L678 883L791 968L904 827L1016 835L1129 852L1242 795L1355 793L1468 843L1581 811L1694 819L1807 945L1920 929L1920 1081L1807 1081L1694 1081L1581 1081L1468 1081L1355 1081L1242 1081L1129 1081L1016 1081L904 1081L791 1081L678 1081L565 1081L452 1081L339 1081L226 1081L113 1081L0 1081Z" fill="#2b1b5e"></path><path d="M0 819L113 998L226 835L339 975L452 937L565 939L678 893L791 930L904 947L1016 991L1129 866L1242 856L1355 960L1468 893L1581 820L1694 942L1807 949L1920 988L1920 1081L1807 1081L1694 1081L1581 1081L1468 1081L1355 1081L1242 1081L1129 1081L1016 1081L904 1081L791 1081L678 1081L565 1081L452 1081L339 1081L226 1081L113 1081L0 1081Z" fill="#301e67"></path><path d="M0 928L113 951L226 879L339 953L452 980L565 1019L678 980L791 962L904 889L1016 944L1129 885L1242 884L1355 988L1468 874L1581 971L1694 1016L1807 896L1920 956L1920 1081L1807 1081L1694 1081L1581 1081L1468 1081L1355 1081L1242 1081L1129 1081L1016 1081L904 1081L791 1081L678 1081L565 1081L452 1081L339 1081L226 1081L113 1081L0 1081Z" fill="#352071"></path><path d="M0 1029L113 1023L226 1013L339 929L452 1006L565 1017L678 1022L791 954L904 957L1016 1015L1129 1036L1242 932L1355 1039L1468 1031L1581 1001L1694 1008L1807 1042L1920 1028L1920 1081L1807 1081L1694 1081L1581 1081L1468 1081L1355 1081L1242 1081L1129 1081L1016 1081L904 1081L791 1081L678 1081L565 1081L452 1081L339 1081L226 1081L113 1081L0 1081Z" fill="#3a227a"></path><path d="M0 1064L113 1030L226 1039L339 1014L452 1056L565 1058L678 1011L791 1014L904 1059L1016 1010L1129 1044L1242 997L1355 1009L1468 1013L1581 1039L1694 1025L1807 977L1920 1060L1920 1081L1807 1081L1694 1081L1581 1081L1468 1081L1355 1081L1242 1081L1129 1081L1016 1081L904 1081L791 1081L678 1081L565 1081L452 1081L339 1081L226 1081L113 1081L0 1081Z" fill="#3f2484"></path></svg>